<?xml version="1.0" encoding="UTF-8"?>
<!DOCTYPE svg PUBLIC "-//W3C//DTD SVG 1.1//EN" "http://www.w3.org/Graphics/SVG/1.1/DTD/svg11.dtd">
<svg version="1.1" xmlns="http://www.w3.org/2000/svg" xmlns:xlink="http://www.w3.org/1999/xlink" x="0" y="0" width="612" height="792" viewBox="0, 0, 612, 792">
  <defs>
    <linearGradient id="Gradient_1" gradientUnits="userSpaceOnUse" x1="192" y1="292.5" x2="391" y2="292.5">
      <stop offset="0.491" stop-color="#FFFFFF"/>
      <stop offset="0.494" stop-color="#000000"/>
    </linearGradient>
    <linearGradient id="Gradient_2" gradientUnits="userSpaceOnUse" x1="281.5" y1="137" x2="300.5" y2="137">
      <stop offset="0.501" stop-color="#FFFFFF"/>
      <stop offset="0.499" stop-color="#000000"/>
    </linearGradient>
    <linearGradient id="Gradient_3" gradientUnits="userSpaceOnUse" x1="282.5" y1="449" x2="301.5" y2="449">
      <stop offset="0.501" stop-color="#FFFFFF"/>
      <stop offset="0.499" stop-color="#000000"/>
    </linearGradient>
  </defs>
  <g id="Layer_1">
    <path d="M291.5,392 C236.548,392 192,347.452 192,292.5 C192,237.548 236.548,193 291.5,193 C346.452,193 391,237.548 391,292.5 C391,347.452 346.452,392 291.5,392 z" fill="url(#Gradient_1)"/>
    <path d="M292,392.5 C237.048,392.5 192.5,347.952 192.5,293 C192.5,238.048 237.048,193.5 292,193.5 C346.952,193.5 391.5,238.048 391.5,293 C391.5,347.952 346.952,392.5 292,392.5 z" fill-opacity="0" stroke="#000000" stroke-width="6"/>
    <g>
      <path d="M291,91.5 L291,91.5 C296.247,91.5 300.5,95.753 300.5,101 L300.5,173 C300.5,178.247 296.247,182.5 291,182.5 L291,182.5 C285.753,182.5 281.5,178.247 281.5,173 L281.5,101 C281.5,95.753 285.753,91.5 291,91.5 z" fill="url(#Gradient_2)"/>
      <path d="M291,91.5 L291,91.5 C296.247,91.5 300.5,95.753 300.5,101 L300.5,173 C300.5,178.247 296.247,182.5 291,182.5 L291,182.5 C285.753,182.5 281.5,178.247 281.5,173 L281.5,101 C281.5,95.753 285.753,91.5 291,91.5 z" fill-opacity="0" stroke="#000000" stroke-width="3"/>
    </g>
    <g>
      <path d="M292,403.5 L292,403.5 C297.247,403.5 301.5,407.753 301.5,413 L301.5,485 C301.5,490.247 297.247,494.5 292,494.5 L292,494.5 C286.753,494.5 282.5,490.247 282.5,485 L282.5,413 C282.5,407.753 286.753,403.5 292,403.5 z" fill="url(#Gradient_3)"/>
      <path d="M292,403.5 L292,403.5 C297.247,403.5 301.5,407.753 301.5,413 L301.5,485 C301.5,490.247 297.247,494.5 292,494.5 L292,494.5 C286.753,494.5 282.5,490.247 282.5,485 L282.5,413 C282.5,407.753 286.753,403.5 292,403.5 z" fill-opacity="0" stroke="#000000" stroke-width="3"/>
    </g>
    <path d="M492.499,292.717 L492.499,292.717 C492.532,297.963 488.305,302.243 483.059,302.276 L411.06,302.724 C405.813,302.757 401.534,298.53 401.501,293.283 L401.501,293.283 C401.468,288.037 405.695,283.757 410.942,283.724 L482.94,283.276 C488.187,283.243 492.466,287.47 492.499,292.717 z" fill-opacity="0" stroke="#000000" stroke-width="3"/>
    <g>
      <path d="M180.999,292.717 L180.999,292.717 C181.032,297.963 176.805,302.243 171.559,302.276 L99.56,302.724 C94.313,302.757 90.034,298.53 90.001,293.283 L90.001,293.283 C89.968,288.037 94.195,283.757 99.442,283.724 L171.44,283.276 C176.687,283.243 180.966,287.47 180.999,292.717 z" fill="#000000"/>
      <path d="M180.999,292.717 L180.999,292.717 C181.032,297.963 176.805,302.243 171.559,302.276 L99.56,302.724 C94.313,302.757 90.034,298.53 90.001,293.283 L90.001,293.283 C89.968,288.037 94.195,283.757 99.442,283.724 L171.44,283.276 C176.687,283.243 180.966,287.47 180.999,292.717 z" fill-opacity="0" stroke="#000000" stroke-width="3"/>
    </g>
    <g>
      <path d="M209.519,364.675 L209.519,364.675 C213.188,368.425 213.124,374.439 209.374,378.109 L157.917,428.47 C154.167,432.14 148.153,432.075 144.483,428.325 L144.483,428.325 C140.813,424.575 140.878,418.561 144.627,414.891 L196.084,364.53 C199.834,360.86 205.849,360.925 209.519,364.675 z" fill="#000000"/>
      <path d="M209.519,364.675 L209.519,364.675 C213.188,368.425 213.124,374.439 209.374,378.109 L157.917,428.47 C154.167,432.14 148.153,432.075 144.483,428.325 L144.483,428.325 C140.813,424.575 140.878,418.561 144.627,414.891 L196.084,364.53 C199.834,360.86 205.849,360.925 209.519,364.675 z" fill-opacity="0" stroke="#000000" stroke-width="3"/>
    </g>
    <path d="M433.789,151.995 L433.789,151.995 C437.459,155.744 437.395,161.759 433.645,165.429 L382.188,215.789 C378.438,219.459 372.423,219.395 368.754,215.645 L368.754,215.645 C365.084,211.895 365.149,205.88 368.898,202.211 L420.355,151.85 C424.105,148.18 430.12,148.245 433.789,151.995 z" fill-opacity="0" stroke="#000000" stroke-width="3"/>
    <path d="M373.763,367.113 L373.763,367.113 C377.151,363.108 383.146,362.608 387.151,365.996 L442.12,412.498 C446.126,415.887 446.626,421.881 443.237,425.887 L443.237,425.887 C439.849,429.892 433.854,430.393 429.849,427.004 L374.88,380.502 C370.874,377.113 370.374,371.119 373.763,367.113 z" fill-opacity="0" stroke="#000000" stroke-width="3"/>
    <g>
      <path d="M142.264,154.433 L142.264,154.433 C145.652,150.427 151.646,149.927 155.652,153.316 L210.621,199.818 C214.626,203.207 215.127,209.201 211.738,213.206 L211.738,213.206 C208.349,217.212 202.355,217.712 198.349,214.324 L143.381,167.822 C139.375,164.433 138.875,158.439 142.264,154.433 z" fill="#000000"/>
      <path d="M142.264,154.433 L142.264,154.433 C145.652,150.427 151.646,149.927 155.652,153.316 L210.621,199.818 C214.626,203.207 215.127,209.201 211.738,213.206 L211.738,213.206 C208.349,217.212 202.355,217.712 198.349,214.324 L143.381,167.822 C139.375,164.433 138.875,158.439 142.264,154.433 z" fill-opacity="0" stroke="#000000" stroke-width="3"/>
    </g>
  </g>
</svg>
