<?xml version="1.0" encoding="UTF-8"?>
<!DOCTYPE svg PUBLIC "-//W3C//DTD SVG 1.1//EN" "http://www.w3.org/Graphics/SVG/1.1/DTD/svg11.dtd">
<svg version="1.1" xmlns="http://www.w3.org/2000/svg" xmlns:xlink="http://www.w3.org/1999/xlink" x="0" y="0" width="612" height="792" viewBox="0, 0, 612, 792">
  <g id="Layer_1">
    <g>
      <path d="M308.791,591.045 C237.074,591.045 178.936,532.907 178.936,461.19 C178.936,389.473 237.074,331.335 308.791,331.335 C380.508,331.335 438.647,389.473 438.647,461.19 C438.647,532.907 380.508,591.045 308.791,591.045 z" fill-opacity="0" stroke="#000000" stroke-width="80"/>
    </g>
    <g>
      <path d="M298.346,269.986 L319.236,269.986 C323.275,269.986 326.549,273.26 326.549,277.298 L326.549,302.55 C326.549,306.589 323.275,309.863 319.236,309.863 L298.346,309.863 C294.308,309.863 291.034,306.589 291.034,302.55 L291.034,277.298 C291.034,273.26 294.308,269.986 298.346,269.986 z" fill="#050505"/>
      <path d="M298.346,269.986 L319.236,269.986 C323.275,269.986 326.549,273.26 326.549,277.298 L326.549,302.55 C326.549,306.589 323.275,309.863 319.236,309.863 L298.346,309.863 C294.308,309.863 291.034,306.589 291.034,302.55 L291.034,277.298 C291.034,273.26 294.308,269.986 298.346,269.986 z" fill-opacity="0" stroke="#000000" stroke-width="39"/>
    </g>
    <g>
      <path d="M468.343,441.252 L489.233,441.252 C493.272,441.252 496.546,444.526 496.546,448.564 L496.546,473.816 C496.546,477.855 493.272,481.128 489.233,481.128 L468.343,481.128 C464.305,481.128 461.031,477.855 461.031,473.816 L461.031,448.564 C461.031,444.526 464.305,441.252 468.343,441.252 z" fill="#050505"/>
      <path d="M468.343,441.252 L489.233,441.252 C493.272,441.252 496.546,444.526 496.546,448.564 L496.546,473.816 C496.546,477.855 493.272,481.128 489.233,481.128 L468.343,481.128 C464.305,481.128 461.031,477.855 461.031,473.816 L461.031,448.564 C461.031,444.526 464.305,441.252 468.343,441.252 z" fill-opacity="0" stroke="#000000" stroke-width="39"/>
    </g>
    <g>
      <path d="M298.346,610.203 L319.236,610.203 C323.275,610.203 326.549,613.477 326.549,617.515 L326.549,642.767 C326.549,646.806 323.275,650.079 319.236,650.079 L298.346,650.079 C294.308,650.079 291.034,646.806 291.034,642.767 L291.034,617.515 C291.034,613.477 294.308,610.203 298.346,610.203 z" fill="#050505"/>
      <path d="M298.346,610.203 L319.236,610.203 C323.275,610.203 326.549,613.477 326.549,617.515 L326.549,642.767 C326.549,646.806 323.275,650.079 319.236,650.079 L298.346,650.079 C294.308,650.079 291.034,646.806 291.034,642.767 L291.034,617.515 C291.034,613.477 294.308,610.203 298.346,610.203 z" fill-opacity="0" stroke="#000000" stroke-width="39"/>
    </g>
    <g>
      <path d="M439.086,322.305 L453.797,337.137 C456.642,340.004 456.623,344.634 453.755,347.478 L435.827,365.261 C432.96,368.105 428.33,368.086 425.486,365.219 L410.774,350.387 C407.93,347.52 407.949,342.89 410.816,340.046 L428.745,322.263 C431.612,319.419 436.242,319.438 439.086,322.305 z" fill="#050505"/>
      <path d="M439.086,322.305 L453.797,337.137 C456.642,340.004 456.623,344.634 453.755,347.478 L435.827,365.261 C432.96,368.105 428.33,368.086 425.486,365.219 L410.774,350.387 C407.93,347.52 407.949,342.89 410.816,340.046 L428.745,322.263 C431.612,319.419 436.242,319.438 439.086,322.305 z" fill-opacity="0" stroke="#000000" stroke-width="39"/>
    </g>
    <g>
      <path d="M189.559,557.969 L204.271,572.8 C207.115,575.668 207.096,580.298 204.229,583.142 L186.3,600.924 C183.433,603.769 178.803,603.75 175.959,600.882 L161.248,586.051 C158.403,583.184 158.422,578.554 161.29,575.709 L179.218,557.927 C182.085,555.082 186.715,555.101 189.559,557.969 z" fill="#050505"/>
      <path d="M189.559,557.969 L204.271,572.8 C207.115,575.668 207.096,580.298 204.229,583.142 L186.3,600.924 C183.433,603.769 178.803,603.75 175.959,600.882 L161.248,586.051 C158.403,583.184 158.422,578.554 161.29,575.709 L179.218,557.927 C182.085,555.082 186.715,555.101 189.559,557.969 z" fill-opacity="0" stroke="#000000" stroke-width="39"/>
    </g>
    <g>
      <path d="M120.699,441.252 L141.589,441.252 C145.628,441.252 148.902,444.526 148.902,448.564 L148.902,473.816 C148.902,477.855 145.628,481.128 141.589,481.128 L120.699,481.128 C116.661,481.128 113.387,477.855 113.387,473.816 L113.387,448.564 C113.387,444.526 116.661,441.252 120.699,441.252 z" fill="#050505"/>
      <path d="M120.699,441.252 L141.589,441.252 C145.628,441.252 148.902,444.526 148.902,448.564 L148.902,473.816 C148.902,477.855 145.628,481.128 141.589,481.128 L120.699,481.128 C116.661,481.128 113.387,477.855 113.387,473.816 L113.387,448.564 C113.387,444.526 116.661,441.252 120.699,441.252 z" fill-opacity="0" stroke="#000000" stroke-width="39"/>
    </g>
    <g>
      <path d="M439.086,557.969 L453.797,572.8 C456.642,575.668 456.623,580.297 453.755,583.142 L435.827,600.924 C432.96,603.769 428.33,603.75 425.486,600.882 L410.774,586.051 C407.93,583.183 407.949,578.554 410.816,575.709 L428.745,557.927 C431.612,555.082 436.242,555.101 439.086,557.969 z" fill="#050505"/>
      <path d="M439.086,557.969 L453.797,572.8 C456.642,575.668 456.623,580.297 453.755,583.142 L435.827,600.924 C432.96,603.769 428.33,603.75 425.486,600.882 L410.774,586.051 C407.93,583.183 407.949,578.554 410.816,575.709 L428.745,557.927 C431.612,555.082 436.242,555.101 439.086,557.969 z" fill-opacity="0" stroke="#000000" stroke-width="39"/>
    </g>
    <g>
      <path d="M189.559,317.138 L204.271,331.97 C207.115,334.837 207.096,339.467 204.229,342.311 L186.3,360.094 C183.433,362.938 178.803,362.919 175.959,360.052 L161.248,345.22 C158.403,342.353 158.422,337.723 161.29,334.879 L179.218,317.096 C182.085,314.252 186.715,314.271 189.559,317.138 z" fill="#050505"/>
      <path d="M189.559,317.138 L204.271,331.97 C207.115,334.837 207.096,339.467 204.229,342.311 L186.3,360.094 C183.433,362.938 178.803,362.919 175.959,360.052 L161.248,345.22 C158.403,342.353 158.422,337.723 161.29,334.879 L179.218,317.096 C182.085,314.252 186.715,314.271 189.559,317.138 z" fill-opacity="0" stroke="#000000" stroke-width="39"/>
    </g>
    <path d="M306.746,343.762 z" fill-opacity="0" stroke="#000000" stroke-width="8"/>
  </g>
</svg>
