<?xml version="1.0" encoding="UTF-8"?>
<!DOCTYPE svg PUBLIC "-//W3C//DTD SVG 1.1//EN" "http://www.w3.org/Graphics/SVG/1.1/DTD/svg11.dtd">
<svg version="1.1" xmlns="http://www.w3.org/2000/svg" xmlns:xlink="http://www.w3.org/1999/xlink" x="0" y="0" width="612" height="792" viewBox="0, 0, 612, 792">
  <g id="Layer_1">
    <path d="M332.198,406.596 L351.5,406.596 L351.5,406.596 L332.198,406.596 L332.198,406.596 z" fill="#B9B8B8"/>
    <g>
      <path d="M170,317.5 L443,317.5 C449.627,317.5 455,322.873 455,329.5 L455,504.5 C455,511.127 449.627,516.5 443,516.5 L170,516.5 C163.373,516.5 158,511.127 158,504.5 L158,329.5 C158,322.873 163.373,317.5 170,317.5 z" fill="#747474"/>
      <path d="M170,317.5 L443,317.5 C449.627,317.5 455,322.873 455,329.5 L455,504.5 C455,511.127 449.627,516.5 443,516.5 L170,516.5 C163.373,516.5 158,511.127 158,504.5 L158,329.5 C158,322.873 163.373,317.5 170,317.5 z" fill-opacity="0" stroke="#747474" stroke-width="8"/>
    </g>
    <g>
      <path d="M241.697,276.5 L371.303,276.5 C374.449,276.5 377,280.712 377,285.907 L377,423.093 C377,428.288 374.449,432.5 371.303,432.5 L241.697,432.5 C238.551,432.5 236,428.288 236,423.093 L236,285.907 C236,280.712 238.551,276.5 241.697,276.5 z" fill="#747474"/>
      <path d="M241.697,276.5 L371.303,276.5 C374.449,276.5 377,280.712 377,285.907 L377,423.093 C377,428.288 374.449,432.5 371.303,432.5 L241.697,432.5 C238.551,432.5 236,428.288 236,423.093 L236,285.907 C236,280.712 238.551,276.5 241.697,276.5 z" fill-opacity="0" stroke="#747474" stroke-width="8"/>
    </g>
    <path d="M306,479.596 C265.683,479.596 233,446.913 233,406.596 C233,366.279 265.683,333.596 306,333.596 C346.317,333.596 379,366.279 379,406.596 C379,446.913 346.317,479.596 306,479.596 z" fill="#F6F2F2"/>
    <text transform="matrix(1, 0, 0, 1, 308, 404.596)">
      <tspan x="-65.92" y="30" font-family="HelveticaNeue-Bold" font-size="80" fill="#04C81E">W</tspan>
      <tspan x="9.6" y="30" font-family="HelveticaNeue-Bold" font-size="80" fill="#C82F04">B</tspan>
    </text>
  </g>
</svg>
